Coordinates
version=1
nRows=25
nColumns=28
inDegrees=yes

Units are S.I. units (second, meters, Newtons, ...)
Angles are in degrees.

endheader
time	pelvis_tilt	pelvis_list	pelvis_rotation	pelvis_tx	pelvis_ty	pelvis_tz	hip_flexion_r	hip_adduction_r	hip_rotation_r	knee_angle_r	ankle_angle_r	subtalar_angle_r	mtp_angle_r	hip_flexion_l	hip_adduction_l	hip_rotation_l	knee_angle_l	socket_flexion	socket_adduction	socket_rotation	socket_tx	socket_ty	socket_tz	foot_flex	lumbar_extension	lumbar_bending	lumbar_rotation
      0.90000000	      2.85646727	     -5.72361093	     -1.59126819	      0.36217722	      1.02321565	      0.33394118	      5.60314092	     11.59110826	      1.32543793	    -19.01396034	     10.60966411	    -13.17604942	      5.38264660	      3.45686806	    -10.84395579	     -3.66279819	    -65.82522616	    -10.42896983	      1.21717346	     13.57780032	      0.00000000	     -0.00406033	      0.00000000	     -0.18989744	     -9.93948557	      6.01088564	      2.40166209
      0.90416667	      2.85170997	     -5.51571478	     -1.80866237	      0.36732933	      1.02451559	      0.33455165	      5.01822699	     11.35432919	      1.45309109	    -18.54394728	     10.58179509	    -12.91000420	      5.41126673	      4.10408251	    -10.66320018	     -3.65924315	    -65.86961279	    -10.45650403	      1.25897430	     13.54208462	      0.00000000	     -0.00386029	      0.00000000	     -0.19977507	     -9.93649191	      5.72982044	      2.53098818
      0.90833333	      2.86127267	     -5.29478491	     -2.04107232	      0.37236209	      1.02578212	      0.33518445	      4.45638713	     11.09767697	      1.55506307	    -18.12895937	     10.51516320	    -12.62625124	      5.44017192	      4.75700179	    -10.46369977	     -3.65270366	    -65.92770425	    -10.50891928	      1.29297853	     13.50579855	      0.00000000	     -0.00355167	      0.00000000	     -0.19811893	     -9.97012496	      5.41521653	      2.71223268
      0.91250000	      2.86010367	     -5.08232949	     -2.26896605	      0.37738759	      1.02700179	      0.33577938	      3.91422987	     10.84504895	      1.64275126	    -17.71721085	     10.46278794	    -12.35531658	      5.46899678	      5.40485888	    -10.27138435	     -3.64779136	    -65.92615714	    -10.55690336	      1.31169836	     13.47087389	      0.00000000	     -0.00329173	      0.00000000	     -0.19316876	     -9.99544019	      5.11480740	      2.89047076
      0.91666667	      2.86919775	     -4.84371112	     -2.50466785	      0.38227934	      1.02821526	      0.33641269	      3.38449292	     10.56078722	      1.72416095	    -17.33215266	     10.37992314	    -12.02567778	      5.51532088	      6.07214211	    -10.05159331	     -3.64458737	    -65.92785983	    -10.60312233	      1.35207090	     13.45026676	      0.00000000	     -0.00288823	      0.00000000	     -0.18670878	    -10.03961890	      4.77631826	      3.14062404
      0.92083333	      2.87382115	     -4.77636094	     -2.80581357	      0.38706896	      1.02924347	      0.33705905	      2.98165413	     10.44570797	      1.64926685	    -17.19466322	     10.38427380	    -11.95438093	      5.52521302	      6.63085742	    -10.01569399	     -3.66976874	    -65.76070148	    -10.62084416	      1.43407452	     13.44469885	      0.00000000	     -0.00323892	      0.00000000	     -0.17424975	    -10.13080260	      4.69780437	      3.18961180
      0.92500000	      2.85900323	     -4.44771363	     -2.95915170	      0.39210061	      1.03050277	      0.33762258	      2.33512353	     10.07450583	      1.89359920	    -16.50913764	     10.28039945	    -11.50608036	      5.55953282	      7.36889556	     -9.69759920	     -3.62467371	    -65.73889035	    -10.67196030	      1.39674549	     13.41774411	      0.00000000	     -0.00239143	      0.00000000	     -0.17376147	    -10.07966818	      4.21723049	      3.44744833
      0.92916667	      2.85612954	     -4.22187693	     -3.20709062	      0.39689781	      1.03159425	      0.33824448	      1.85108130	      9.79367227	      1.95840539	    -16.15578185	     10.17054630	    -11.17131734	      5.59986286	      8.00845850	     -9.47468062	     -3.60091434	    -65.58476407	    -10.69958796	      1.43257867	     13.40531159	      0.00000000	     -0.00211401	      0.00000000	     -0.15736507	    -10.12885940	      3.88825223	      3.70302898
      0.93333333	      2.84971890	     -4.00545253	     -3.46188355	      0.40167272	      1.03265751	      0.33883688	      1.38585466	      9.51324408	      1.99522415	    -15.82429690	     10.09557279	    -10.81986542	      5.66844071	      8.62882340	     -9.25672220	     -3.58112510	    -65.35797345	    -10.71165199	      1.47967162	     13.37025944	      0.00000000	     -0.00192915	      0.00000000	     -0.14500560	    -10.16630357	      3.57534987	      3.98220536
      0.93750000	      2.83760276	     -3.80524560	     -3.70392358	      0.40642574	      1.03366930	      0.33942135	      0.92234941	      9.25312907	      2.04498626	    -15.47993353	     10.04012420	    -10.48629038	      5.73649229	      9.24864220	     -9.05665468	     -3.54808545	    -65.09055494	    -10.72230000	      1.52255048	     13.34148693	      0.00000000	     -0.00178383	      0.00000000	     -0.13423676	    -10.20078088	      3.28599909	      4.21357000
      0.94166667	      2.82554776	     -3.61229032	     -3.94837150	      0.41116406	      1.03462587	      0.33998542	      0.47091553	      8.99199581	      2.08400072	    -15.15086346	      9.96900090	    -10.12873569	      5.81545446	      9.85648170	     -8.85675388	     -3.49940751	    -64.78792598	    -10.73982621	      1.57095602	     13.30927599	      0.00000000	     -0.00167183	      0.00000000	     -0.12853377	    -10.23260804	      3.00270948	      4.45787012
      0.94583333	      2.83534417	     -3.57227171	     -4.22154406	      0.41563316	      1.03545175	      0.34059331	      0.12480229	      8.90187324	      2.01199572	    -15.07714172	      9.96942803	    -10.06548575	      5.82932717	     10.43330453	     -8.85141155	     -3.49497174	    -64.48658215	    -10.76460746	      1.59589638	     13.30270057	      0.00000000	     -0.00181458	      0.00000000	     -0.10637810	    -10.37009672	      2.94604536	      4.49892615
      0.95000000	      2.78287086	     -3.25843510	     -4.43689030	      0.42060491	      1.03639603	      0.34115653	     -0.39833402	      8.51025338	      2.14248228	    -14.50508916	      9.78922987	     -9.46103727	      5.95130788	     11.03680217	     -8.48937908	     -3.38973359	    -64.01899641	    -10.74846210	      1.66542758	     13.23589637	      0.00000000	     -0.00163958	      0.00000000	     -0.10473652	    -10.28664497	      2.47901679	      4.90883183
      0.95416667	      2.76103290	     -3.10325351	     -4.65981592	      0.42527893	      1.03722456	      0.34168319	     -0.83454216	      8.29158179	      2.18420850	    -14.16854905	      9.76850497	     -9.13692657	      6.04700010	     11.62373254	     -8.32670965	     -3.31312984	    -63.59401420	    -10.74811920	      1.69740745	     13.19743297	      0.00000000	     -0.00161362	      0.00000000	     -0.09304207	    -10.31872640	      2.24762044	      5.10487822
      0.95833333	      2.77370422	     -3.08021811	     -4.91279083	      0.42961848	      1.03792229	      0.34221660	     -1.15989614	      8.21269815	      2.11831691	    -14.12093995	      9.76663859	     -9.08347350	      6.06053064	     12.20377716	     -8.33860599	     -3.29565892	    -63.24251041	    -10.78413569	      1.68635935	     13.18971814	      0.00000000	     -0.00166338	      0.00000000	     -0.06675162	    -10.47212089	      2.20492140	      5.13711008
      0.96250000	      2.71379033	     -2.90859074	     -5.09355758	      0.43438005	      1.03864281	      0.34276597	     -1.62536539	      7.98692876	      2.23071282	    -13.63703465	      9.69083190	     -8.74376884	      6.10739019	     12.83384240	     -8.17581460	     -3.20949006	    -62.77919630	    -10.77378055	      1.68786534	     13.19401962	      0.00000000	     -0.00144465	      0.00000000	     -0.04583292	    -10.44402967	      1.95061897	      5.31024849
      0.96666667	      2.63993446	     -2.71930551	     -5.30466470	      0.43926237	      1.03931390	      0.34322843	     -2.07638692	      7.72102124	      2.31973138	    -13.15514140	      9.52640836	     -8.29606281	      6.19195307	     13.38149318	     -7.94715334	     -3.09771534	    -62.13328256	    -10.75157022	      1.73939002	     13.13885014	      0.00000000	     -0.00167852	      0.00000000	     -0.03970740	    -10.35799864	      1.66276845	      5.59696596
      0.97083333	      2.65833167	     -2.71037811	     -5.54361353	      0.44346482	      1.03988724	      0.34371162	     -2.38290947	      7.65049765	      2.25765832	    -13.13300116	      9.52549722	     -8.25350538	      6.20525664	     13.95897430	     -7.97348018	     -3.06633025	    -61.73447220	    -10.79806883	      1.69239965	     13.12310694	      0.00000000	     -0.00157608	      0.00000000	     -0.01087147	    -10.52074553	      1.62675122	      5.62773017
      0.97500000	      2.54092038	     -2.53340179	     -5.68891612	      0.44847010	      1.04040640	      0.34415377	     -2.86992041	      7.41774901	      2.41149567	    -12.49816846	      9.42200843	     -7.80404564	      6.28591148	     14.54008159	     -7.77218543	     -2.93429501	    -61.03419189	    -10.75557610	      1.69747888	     13.12411332	      0.00000000	     -0.00178168	      0.00000000	     -0.00032821	    -10.38203035	      1.35349453	      5.88779513
      0.97916667	      2.47284724	     -2.42351292	     -5.91654601	      0.45319293	      1.04089657	      0.34466995	     -3.24986401	      7.23644965	      2.43855350	    -12.15969817	      9.28188673	     -7.45225497	      6.38719224	     15.02719142	     -7.64547836	     -2.82332293	    -60.26386112	    -10.70371712	      1.76017667	     13.05796012	      0.00000000	     -0.00220742	      0.00000000	     -0.01083940	    -10.34863425	      1.18219669	      6.14168337
      0.98333333	      2.49237302	     -2.43029642	     -6.13135345	      0.45731091	      1.04133486	      0.34506969	     -3.54787951	      7.17807949	      2.38664986	    -12.15071566	      9.28568528	     -7.41684629	      6.40321416	     15.61064980	     -7.68644641	     -2.78429573	    -59.85589653	    -10.78064360	      1.68054561	     13.04707689	      0.00000000	     -0.00189475	      0.00000000	      0.01676966	    -10.52727651	      1.15177652	      6.16811035
      0.98750000	      2.35450928	     -2.31593857	     -6.27159204	      0.46233430	      1.04166794	      0.34551317	     -4.00045387	      7.01331997	      2.51000540	    -11.54334442	      9.21153513	     -7.02645233	      6.50265696	     16.11778461	     -7.55932491	     -2.64352245	    -58.94707573	    -10.66918620	      1.69059585	     13.04279348	      0.00000000	     -0.00247191	      0.00000000	      0.03545042	    -10.36568095	      0.97890630	      6.39378752
      0.99166667	      2.36324950	     -2.32440446	     -6.47896545	      0.46645322	      1.04195770	      0.34594530	     -4.28838493	      6.95770234	      2.46496573	    -11.53267432	      9.20479280	     -6.99057526	      6.51542431	     16.69313089	     -7.60657658	     -2.59700614	    -58.51527655	    -10.76845535	      1.59396631	     13.03084685	      0.00000000	     -0.00217982	      0.00000000	      0.06263372	    -10.54985954	      0.94705694	      6.41814014
      0.99583333	      2.28253459	     -2.18348348	     -6.72945070	      0.47147870	      1.04228161	      0.34642093	     -4.75131508	      6.72982114	      2.61063648	    -11.01752391	      8.94801425	     -6.49642216	      6.87041183	     16.86362556	     -7.34414236	     -2.28327944	    -56.99819687	    -10.46289630	      1.86733885	     12.71912248	      0.00000000	     -0.00398598	      0.00000000	     -0.04696811	    -10.42737102	      0.72207449	      6.88416503
      1.00000000	      2.29025125	     -2.19993540	     -6.91298866	      0.47558406	      1.04249580	      0.34680445	     -5.04335140	      6.68390072	      2.56378226	    -10.99004627	      8.96912227	     -6.47306273	      6.88621104	     17.45134505	     -7.40560167	     -2.23656906	    -56.58750994	    -10.59444657	      1.74320817	     12.72311336	      0.00000000	     -0.00346892	      0.00000000	     -0.00912259	    -10.61199981	      0.69215076	      6.89358203
